<svg id="Layer_1" data-name="Layer 1" xmlns="http://www.w3.org/2000/svg" viewBox="0 0 160.68 177.77"><defs><style>.cls-1{fill:#8d6748;}.cls-2{fill:#fff;}</style></defs><title>mocha-sj-logo</title><path class="cls-1" d="M169.47,143.9l-68.7,39.7a9.51,9.51,0,0,1-9.54,0l-68.7-39.7a9.54,9.54,0,0,1-4.77-8.21V56.31a9.42,9.42,0,0,1,4.77-8.21L91.23,8.4a9.51,9.51,0,0,1,9.54,0l68.7,39.7a9.54,9.54,0,0,1,4.77,8.21v79.38a9.94,9.94,0,0,1-4.77,8.21Z" transform="translate(-17.76 -7.12)"/><path class="cls-2" d="M95.9,22.05a5.48,5.48,0,0,1,2.68.76l59.35,34.26a5.49,5.49,0,0,1,2.67,4.67v68.52a5.49,5.49,0,0,1-2.67,4.67L98.58,169.19a5.48,5.48,0,0,1-2.68.76,5.22,5.22,0,0,1-2.67-.76L33.88,134.93a5.49,5.49,0,0,1-2.67-4.67V61.74a5.49,5.49,0,0,1,2.67-4.67L93.23,22.81a5.79,5.79,0,0,1,2.67-.76m0-2.86a7.86,7.86,0,0,0-4.1,1.14L32.45,54.59a8.09,8.09,0,0,0-4.1,7.06v68.51a8,8,0,0,0,4.1,7.06L91.8,171.48a8,8,0,0,0,8.21,0l59.35-34.26a8.09,8.09,0,0,0,4.1-7.06V61.65a8,8,0,0,0-4.1-7.06L100,20.33A7.86,7.86,0,0,0,95.9,19.19Z" transform="translate(-17.76 -7.12)"/><path class="cls-2" d="M104.35,61.65a1,1,0,0,0-.95-1H85.46a1,1,0,0,0-1,1c0,3.24.48,14.41,5.25,19.85a.86.86,0,0,0,.67.28h8a.86.86,0,0,0,.67-.28C103.87,76.15,104.35,65,104.35,61.65ZM97.29,79H91.66a.87.87,0,0,1-.67-.29c-3.24-3.82-3.63-11.45-3.72-14.12a1,1,0,0,1,1-1h12.6a1,1,0,0,1,1,1c0,2.67-.47,10.21-3.72,14.12A1.27,1.27,0,0,1,97.29,79ZM96.24,58.79a4,4,0,0,0,1.33-5.63c-1.24-1.91-1.81-3.53-1.33-4.2-1.24,1.52-3.34,3.15-1,6.58A5.45,5.45,0,0,1,96.24,58.79Zm-3.82.28a2.68,2.68,0,0,0,.86-3.81c-.86-1.25-1.24-2.39-.86-2.77-.86,1-2.19,2.1-.67,4.48A3.85,3.85,0,0,1,92.42,59.07Z" transform="translate(-17.76 -7.12)"/><path class="cls-2" d="M100.25,70.14c-.39,2.58-1.15,5.54-2.77,7.44a.83.83,0,0,1-.57.29H92.14a.69.69,0,0,1-.58-.29,13.64,13.64,0,0,1-2.38-5.34s5.53.76,8.68-.38C100.15,71,100.25,70.14,100.25,70.14Z" transform="translate(-17.76 -7.12)"/><path class="cls-2" d="M35.17,110.69H156.83v1H35.17ZM156.83,74.82H105.11c0,.38-.09.66-.09,1.05h51.81V74.82Zm-121.66,0v1.05H83.93c0-.39-.1-.67-.1-1.05Z" transform="translate(-17.76 -7.12)"/><g id="svgg"><path id="path0" class="cls-2" d="M46.78,79.26a7.62,7.62,0,0,1-.93.14,8.46,8.46,0,0,0-5.5,3.09c-3.1,3.64-3.72,8.41-2.06,15.9.49,2.22.51,2.57.21,2.76,0,0-2.09.26-4.56.53-6.13.66-6.15.66-8.07,1.54-5.17,2.34-6.26,7.36-2.55,11.74,2.8,3.3,9.25,5.51,14.21,4.85,5.64-.74,7-4.67,5-14.24-.48-2.32-.53-2.21.81-2.16.41,0,3.52-.1,6.91-.27,7-.34,6.55-.36,7.4.29,1.77,1.35,2.56,1.48,6.07,1a17.38,17.38,0,0,0,4.13-.75l1.08-.32.27.18a1.73,1.73,0,0,1,.51.62c1,1.86,2,1.94,4.65.38a8.13,8.13,0,0,1,1.31-.69,2.66,2.66,0,0,1,1.1.52c.94.79,1.07.77,3.62-.48s2.33-1.24,3.18-.42c1.32,1.26,2.26,1.07,4.66-.92A7.84,7.84,0,0,1,90,101.31s.08.2.08.49a2,2,0,0,0,1.16,2.08c.63.42,1.14.87,1.13,1s-.78.78-1.73,1.67c-2.85,2.65-3.54,3.91-4.17,7.51-1.1,6.41,3.18,12.33,10.36,14.3,11.35,3.11,20.25-5.35,22.63-21.52.42-2.88.85-4.63,1.25-5,.57-.62,4.53-1.25,10.82-1.72,2.81-.21,6.47-.09,6.46.21a7,7,0,0,1-1,.57c-2,1-2.66,2.08-2.35,3.8.43,2.28,2.76,2.71,5.5,1a7.42,7.42,0,0,0,2.19-2.22l.25-.51,0-1.4c0-1.76.07-1.81,1.78-2.9.42-.27,2.89-1.55,3-1.55a9.37,9.37,0,0,1-.58,2.58c-.78,2.68-.8,3.65-.06,4.35s1.83.63,3.27-.47,1.78-1.17,2.63,0c1.25,1.78,2.28,1.84,5,.27.83-.47,1.05-.44,2.19.37.52.36.71.34,2-.26,2.38-1.08,2.24-1.07,8.25-.36,5.53.66,5.15.63,6.21.4,1.28-.28,1.76-.56,2-1.15.34-.89-.62-1.24-2.63-1a15.33,15.33,0,0,1-5.21-.52L169,101l-2.55-.12c-4-.18-4.57-.13-5.4.5l-.36.28-.51-.18c-1.76-.62-2.52-.54-4.55.47-1,.49-1,.5-1.21.38a.79.79,0,0,1-.18-.13,18,18,0,0,0-.49-2.37c-.49-1.11-1.81-1-3.22.25a3.9,3.9,0,0,1-1.38.91l-.23.07v-.3a7.87,7.87,0,0,1,1.74-4.24c2.86-3.68,3.39-4.73,2.71-5.4s-1.34-.41-2.43.77a31.73,31.73,0,0,1-8.6,5.71c-1.61.68-1.81.8-2.44,1.49-1,1.14-1.49,1.25-1.19.29.63-2-3.52-2.34-12.86-1-4.79.7-4.83.7-5,.23-.32-1.2,1-7.43,2.1-10.24,1.25-3.1,1.44-3.7,1.45-4.72,0-1.25-.22-1.39-1.78-1.09a11.56,11.56,0,0,1-1.73.12c-4.3,0-13.29,4.28-14.57,6.9-.54,1.1,0,2.29,1,2.29h.41l1.47-1.41a12.62,12.62,0,0,1,4-2.93C116.42,86,119.39,85,120.81,85h.65l0,.39a3,3,0,0,1-.16.74c-.07.18-.51,2-1,3.91-1.59,6.91-2.2,9.13-2.66,9.74-.11.16-23.35,2.6-24.2,2.55-1.12-.07-1.49-.59-1.68-2.34-.28-2.55-1.33-2.58-4.26-.16-1.38,1.15-1.9,1.48-2.28,1.47s-.54-.1-.84-.94c-.39-1-.48-1.13-1.14-1.08a3.74,3.74,0,0,0-2.11,1c-3.49,2.6-3.64,2.65-3.23,1.07.46-1.77.35-2.23-.8-3.3l-.68-.64-.56-.09c-1.26-.2-2,.14-4.53,2.12L70,100.5l-1.79.58a18.31,18.31,0,0,1-3.81.91l-2,.33-1-.16a3.66,3.66,0,0,1-1-.23,6.13,6.13,0,0,1,1.13-.58,9.37,9.37,0,0,0,2.59-1.48c4.47-3.69-.45-6.92-5.45-3.58a6.54,6.54,0,0,0-2.09,2.51,4.83,4.83,0,0,1-.65.78l-.46.45-2.76.38-2.76.38-3.53.1c-6.25.16-6.11.23-6.78-3.75-1.38-8.18,1-14.34,5.9-15.34a11.15,11.15,0,0,1,3.55.11c3.1.81,4.58,3.66,3.8,7.32-.29,1.39-.2,1.79.49,2.14l.35.18.27-.21c.85-.69,1.23-1.76,1.23-3.51,0-4.32-2.48-7.87-5.91-8.46a11.4,11.4,0,0,0-2.57-.11M62.37,97.51c.42.22,0,.63-1.41,1.28-1.18.56-2.11.72-2.11.36,0-.84,2.68-2.09,3.52-1.64m12.88,2.62a4.14,4.14,0,0,1-2.09,2.24l-1.08.58-.31.18,0-.24c.16-.8.69-1.37,2.12-2.28,1-.65,1.35-.77,1.31-.48m65.22,1.7c.29.69-.94,1.87-2.7,2.59-.75.32-.73.32-.82,0-.17-.62.23-1,1.58-1.67l.9-.43.31-.5.31-.5.17.15a1.34,1.34,0,0,1,.25.37m-23.13.31c.5.26.54.73.25,2.87-1.24,8.94-3.23,14.08-6.86,17.71a11.89,11.89,0,0,1-5.18,3.21,7.07,7.07,0,0,1-3.91.79c-7.13-.28-11.22-2.76-12.85-7.8-1.32-4.06-.74-6.88,2-9.53,3.86-3.77,8.32-5.33,18.24-6.39,1.29-.14,7.48-.87,8.07-1a1,1,0,0,1,.27.1m-77.79,1.48c1.17.24,1.89,2.74,2,6.82.07,3.48-.19,4.48-1.54,5.89-2.92,3.08-12.07,1.16-15.4-3.23-1.22-1.6-1.69-3.84-1.07-5.06,1.08-2.12,3.57-3.2,8.69-3.78l4.2-.49a10.11,10.11,0,0,1,3.15-.15" transform="translate(-17.76 -7.12)"/></g></svg>