<svg id="svg" xmlns="http://www.w3.org/2000/svg" xmlns:xlink="http://www.w3.org/1999/xlink" width="400" height="400" viewBox="0, 0, 400,400"><g id="svgg"><path id="path0" d="M77.000 142.337 C 76.679 142.422,75.704 142.573,74.833 142.673 C 69.982 143.227,65.620 145.675,62.083 149.827 C 54.886 158.277,53.448 169.336,57.286 186.715 C 58.422 191.858,58.486 192.680,57.788 193.111 C 57.704 193.163,52.936 193.716,47.193 194.339 C 32.972 195.882,32.936 195.889,28.477 197.913 C 16.489 203.356,13.961 214.992,22.561 225.151 C 29.055 232.822,44.016 237.935,55.533 236.419 C 68.615 234.697,71.827 225.564,67.159 203.365 C 66.030 197.992,65.934 198.248,69.031 198.368 C 69.977 198.405,77.194 198.124,85.069 197.743 C 101.403 196.955,100.269 196.911,102.226 198.400 C 106.340 201.530,108.168 201.847,116.323 200.840 C 122.752 200.046,122.681 200.059,125.904 199.104 L 128.392 198.367 129.032 198.791 C 129.441 199.062,129.866 199.578,130.208 200.220 C 132.509 204.536,134.910 204.730,141.004 201.091 C 142.470 200.216,143.837 199.501,144.043 199.502 C 144.541 199.504,145.959 200.177,146.592 200.711 C 148.760 202.542,149.077 202.499,154.977 199.583 C 160.903 196.655,160.391 196.722,162.363 198.609 C 165.421 201.536,167.611 201.105,173.167 196.482 C 175.361 194.656,176.973 193.500,177.325 193.500 C 177.430 193.500,177.500 193.955,177.500 194.634 C 177.500 197.074,178.005 197.977,180.191 199.441 C 181.672 200.433,182.840 201.476,182.830 201.797 C 182.828 201.863,181.017 203.604,178.807 205.667 C 172.204 211.827,170.586 214.744,169.144 223.083 C 166.573 237.959,176.522 251.707,193.159 256.268 C 219.495 263.488,240.145 243.850,245.667 206.333 C 246.649 199.660,247.650 195.606,248.559 194.625 C 249.882 193.198,259.080 191.737,273.667 190.639 C 280.186 190.148,288.676 190.426,288.665 191.130 C 288.664 191.196,287.595 191.793,286.290 192.456 C 281.616 194.831,280.111 197.264,280.848 201.253 C 281.828 206.556,287.240 207.543,293.599 203.579 C 295.471 202.412,297.970 199.876,298.682 198.421 L 299.250 197.259 299.333 193.991 C 299.437 189.907,299.498 189.809,303.460 187.274 C 304.439 186.648,310.166 183.667,310.390 183.667 C 310.635 183.667,310.097 186.062,309.044 189.667 C 307.229 195.876,307.196 198.120,308.897 199.755 C 310.777 201.562,313.156 201.220,316.500 198.663 C 320.068 195.934,320.624 195.944,322.603 198.775 C 325.499 202.919,327.874 203.046,334.310 199.400 C 336.238 198.307,336.748 198.394,339.394 200.261 C 340.595 201.109,341.032 201.054,344.101 199.664 C 349.623 197.163,349.303 197.177,363.235 198.830 C 376.080 200.354,375.192 200.297,377.651 199.753 C 380.619 199.097,381.738 198.448,382.260 197.082 C 383.048 195.018,380.818 194.207,376.153 194.862 C 373.302 195.262,369.277 194.860,364.081 193.657 L 360.578 192.845 354.664 192.574 C 345.407 192.148,344.050 192.272,342.138 193.719 L 341.290 194.361 340.103 193.945 C 336.020 192.514,334.272 192.694,329.545 195.035 C 327.232 196.180,327.163 196.202,326.753 195.934 C 326.522 195.783,326.333 195.642,326.332 195.621 C 326.300 194.871,325.432 190.644,325.204 190.129 C 324.063 187.549,320.988 187.786,317.720 190.704 C 316.340 191.936,315.358 192.587,314.514 192.829 L 314.000 192.977 314.004 192.280 C 314.018 189.519,315.670 185.506,318.055 182.443 C 324.690 173.918,325.920 171.466,324.336 169.920 C 322.849 168.467,321.227 168.980,318.690 171.708 C 314.885 175.797,305.171 182.253,298.756 184.955 C 295.002 186.536,294.559 186.807,293.092 188.421 C 290.699 191.053,289.620 191.309,290.319 189.078 C 291.790 184.389,282.154 183.643,260.500 186.770 C 249.373 188.377,249.282 188.381,248.990 187.297 C 248.241 184.516,251.196 170.060,253.847 163.535 C 256.766 156.348,257.193 154.958,257.210 152.583 C 257.231 149.680,256.722 149.370,253.083 150.066 C 252.256 150.225,250.738 150.326,249.083 150.333 C 239.111 150.377,218.250 160.259,215.277 166.348 C 214.036 168.891,215.198 171.667,217.503 171.667 L 218.460 171.667 221.855 168.387 C 225.732 164.641,227.189 163.588,231.250 161.591 C 238.536 158.010,245.425 155.652,248.738 155.605 L 250.250 155.583 250.193 156.490 C 250.162 156.989,249.995 157.756,249.823 158.194 C 249.650 158.632,248.647 162.724,247.594 167.287 C 243.897 183.305,242.493 188.451,241.432 189.873 C 241.162 190.236,187.254 195.912,185.288 195.784 C 182.689 195.615,181.833 194.424,181.385 190.353 C 180.737 184.453,178.289 184.363,171.500 189.993 C 168.297 192.650,167.098 193.421,166.223 193.387 C 165.120 193.344,164.967 193.176,164.254 191.224 C 163.370 188.805,163.156 188.602,161.612 188.703 C 160.129 188.801,159.052 189.317,156.735 191.039 C 148.633 197.063,148.290 197.176,149.241 193.520 C 150.308 189.417,150.046 188.335,147.385 185.854 L 145.790 184.367 144.502 184.167 C 141.575 183.712,139.931 184.482,134.000 189.083 L 130.750 191.605 126.583 192.955 C 122.655 194.228,122.149 194.349,117.750 195.070 L 113.083 195.835 110.868 195.459 C 109.649 195.253,108.649 195.013,108.645 194.926 C 108.641 194.840,109.830 194.240,111.287 193.593 C 114.466 192.181,115.692 191.480,117.290 190.159 C 127.667 181.581,116.254 174.086,104.647 181.856 C 102.777 183.107,101.568 184.553,99.787 187.667 C 99.551 188.079,98.876 188.891,98.287 189.470 L 97.217 190.524 90.817 191.409 L 84.417 192.294 76.221 192.506 C 61.731 192.880,62.055 193.059,60.498 183.807 C 57.305 164.832,62.802 150.543,74.180 148.237 C 76.096 147.849,80.485 147.980,82.417 148.484 C 89.615 150.360,93.049 156.970,91.242 165.471 C 90.558 168.687,90.772 169.625,92.373 170.437 L 93.184 170.848 93.800 170.356 C 95.786 168.772,96.667 166.272,96.667 162.222 C 96.667 152.206,90.910 143.967,82.954 142.597 C 81.165 142.290,77.742 142.140,77.000 142.337 M113.162 184.664 C 114.122 185.178,113.063 186.143,109.884 187.653 C 107.145 188.954,105.000 189.316,105.000 188.478 C 105.000 186.526,111.215 183.622,113.162 184.664 M143.028 190.750 C 142.762 192.364,140.651 194.628,138.190 195.938 C 137.215 196.457,136.089 197.071,135.689 197.302 L 134.962 197.721 135.079 197.152 C 135.462 195.290,136.685 193.978,140.000 191.873 C 142.396 190.352,143.140 190.076,143.028 190.750 M294.344 194.692 C 295.011 196.302,292.162 199.043,288.083 200.716 C 286.326 201.437,286.374 201.438,286.170 200.679 C 285.786 199.255,286.698 198.291,289.831 196.809 L 291.935 195.814 292.655 194.648 L 293.375 193.481 293.757 193.840 C 293.968 194.038,294.232 194.421,294.344 194.692 M240.672 195.419 C 241.850 196.029,241.944 197.105,241.255 202.083 C 238.384 222.814,233.760 234.749,225.337 243.169 C 221.588 246.917,219.724 248.069,213.322 250.595 C 208.561 252.473,208.012 252.585,204.250 252.439 C 187.725 251.797,178.240 246.037,174.437 234.333 C 171.382 224.930,172.743 218.384,179.029 212.238 C 187.969 203.497,198.324 199.868,221.333 197.411 C 224.324 197.092,238.679 195.385,240.050 195.186 C 240.123 195.175,240.403 195.280,240.672 195.419 M60.225 198.857 C 62.924 199.399,64.602 205.217,64.785 214.667 C 64.942 222.746,64.339 225.056,61.219 228.340 C 54.439 235.475,33.220 231.029,25.489 220.853 C 22.667 217.138,21.562 211.926,23.000 209.106 C 25.505 204.191,31.286 201.677,43.167 200.334 C 46.421 199.966,50.808 199.450,52.917 199.186 C 57.194 198.650,58.830 198.577,60.225 198.857 " stroke="none" fill="#000000" fill-rule="evenodd"></path></g></svg>